HIERARCHY
ROOT hip
{
	OFFSET 0.000000 0.000000 0.000000 
	CHANNELS 6 Xposition Yposition Zposition Zrotation Xrotation Yrotation
	JOINT abdomen
	{
		OFFSET 0.000000 3.402643 0.000000 
		CHANNELS 3 Zrotation Xrotation Yrotation
		JOINT chest
		{
			OFFSET 0.000000 8.438565 -0.680529 
			CHANNELS 3 Zrotation Xrotation Yrotation
			JOINT neck
			{
				OFFSET 0.000000 10.207942 -0.272212 
				CHANNELS 3 Zrotation Xrotation Yrotation
				JOINT head
				{
					OFFSET 0.000000 3.130431 0.000000 
					CHANNELS 3 Zrotation Xrotation Yrotation
					End Site
					{
						OFFSET 0.000000 3.130435 0.000000 
					}
				}
			}
			JOINT lCollar
			{
				OFFSET 3.470700 6.669187 -0.816635 
				CHANNELS 3 Zrotation Xrotation Yrotation
				JOINT lShldr
				{
					OFFSET 3.198488 0.000000 0.000000 
					CHANNELS 3 Zrotation Xrotation Yrotation
					JOINT lForeArm
					{
						OFFSET 10.139888 0.000000 0.000000 
						CHANNELS 3 Zrotation Xrotation Yrotation
						JOINT lHand
						{
							OFFSET 8.370511 0.000000 0.000000 
							CHANNELS 3 Zrotation Xrotation Yrotation
							End Site
							{
								OFFSET 4.083176 0.000000 0.000000 
							}
						}
					}
				}
			}
			JOINT rCollar
			{
				OFFSET -3.470700 6.669187 -0.816635 
				CHANNELS 3 Zrotation Xrotation Yrotation
				JOINT rShldr
				{
					OFFSET -3.198488 0.000000 0.000000 
					CHANNELS 3 Zrotation Xrotation Yrotation
					JOINT rForeArm
					{
						OFFSET -10.139888 0.000000 0.000000 
						CHANNELS 3 Zrotation Xrotation Yrotation
						JOINT rHand
						{
							OFFSET -8.370511 0.000000 0.000000 
							CHANNELS 3 Zrotation Xrotation Yrotation
							End Site
							{
								OFFSET -4.083176 0.000000 0.000000 
							}
						}
					}
				}
			}
		}
	}
	JOINT lThigh
	{
		OFFSET 5.308129 -1.633274 1.361059 
		CHANNELS 3 Zrotation Xrotation Yrotation
		JOINT lShin
		{
			OFFSET -2.041588 -20.007561 0.000000 
			CHANNELS 3 Zrotation Xrotation Yrotation
			JOINT lFoot
			{
				OFFSET 0.000000 -19.190928 -1.224953 
				CHANNELS 3 Zrotation Xrotation Yrotation
				End Site
				{
					OFFSET 0.000000 -2.449906 4.627600 
				}
			}
		}
	}
	JOINT rThigh
	{
		OFFSET -5.308129 -1.633274 1.361059 
		CHANNELS 3 Zrotation Xrotation Yrotation
		JOINT rShin
		{
			OFFSET 2.041588 -20.007561 0.000000 
			CHANNELS 3 Zrotation Xrotation Yrotation
			JOINT rFoot
			{
				OFFSET 0.000000 -19.190928 -1.224953 
				CHANNELS 3 Zrotation Xrotation Yrotation
				End Site
				{
					OFFSET 0.000000 -2.449906 4.627600 
				}
			}
		}
	}
}
MOTION
Frames: 20
Frame Time: 0.033333
0.000000 45.515347 0.291666 0.000020 -0.000020 179.794922 0.048829 0.351561 0.116896 -0.410156 0.078127 0.273927 -0.000000 -5.849613 -0.683594 0.195314 -0.146483 -0.937000 -5.642945 -0.139581 1.807600 -68.622040 17.319948 11.720082 -6.707406 3.384388 -18.775707 1.861243 6.380524 -1.561068 5.794226 -0.287272 -2.050023 67.673759 16.422386 -10.521729 7.344224 3.035974 18.223797 -3.315764 -3.663792 -3.753033 3.016815 -8.014404 0.974241 -2.201576 13.774795 -0.513213 -1.642532 -3.037790 2.707828 -5.584452 -7.884605 -1.221718 1.731409 14.396355 0.154135 2.038810 -6.737914 -3.778280 
0.000000 45.514919 0.291666 0.000020 -0.000020 179.589828 0.068361 0.429686 0.145971 -0.507813 0.097655 0.362107 -0.029453 -5.908206 -0.989365 0.253907 -0.195311 -1.415149 -5.594080 -0.138282 1.720284 -62.439976 18.828762 12.174330 -4.687725 2.635913 -18.261156 2.096670 6.253036 -1.658198 5.881863 -0.294427 -2.088550 61.069363 17.264896 -10.087869 5.722935 2.355697 17.549088 -3.136075 -3.784169 -3.581550 4.108280 -7.645689 1.079927 -2.036164 13.193671 -0.631371 -1.852473 -2.774823 3.546870 -7.018048 -8.125788 -1.022054 1.818250 14.879751 -0.178720 2.254762 -6.840048 -3.883980 
0.000000 45.514492 0.291666 0.000020 -0.000020 179.384766 0.048829 0.361333 0.126654 -0.439453 0.068360 0.342246 -0.088362 -5.917963 -1.112626 0.214845 -0.195310 -1.610596 -5.552472 -0.223078 1.700964 -55.412395 20.252913 12.116872 -2.658263 1.660850 -17.670069 2.105957 6.193841 -1.574189 5.940566 -0.291871 -2.136894 53.919777 18.161167 -9.336128 3.931553 1.628054 16.983086 -3.364991 -3.530806 -3.806438 5.329080 -6.900433 1.150505 -1.912148 12.413805 -0.592175 -1.814054 -4.107339 3.094017 -8.540639 -8.281348 -1.701869 1.913464 15.348500 0.138890 1.959199 -6.986852 -2.824959 
0.000000 45.514053 0.291666 0.000020 -0.000021 179.189453 0.019531 0.224606 0.087814 -0.292969 0.029303 0.273587 -0.157079 -5.888653 -1.148954 0.146485 -0.175781 -1.689003 -5.500398 -0.330880 1.710841 -48.445843 21.558403 11.834726 -0.735718 0.644308 -17.067137 2.035404 6.162760 -1.438937 5.999240 -0.288398 -2.185235 46.971363 19.030989 -8.505143 2.180256 0.961112 16.471010 -3.739580 -3.125309 -4.189269 6.465838 -5.982543 1.153900 -1.884049 11.622265 -0.451821 -1.504766 -6.429023 2.324157 -9.998098 -8.395537 -1.969490 1.928471 15.810327 0.107483 1.777123 -7.556227 -1.492067 
0.000000 45.515705 0.294145 0.000020 -0.000021 179.189484 0.019500 0.224599 0.087824 -0.293000 0.029302 0.273550 -0.157129 -5.888681 -1.148921 0.146501 -0.175799 -1.689050 -5.500381 -0.330873 1.710897 -48.445873 21.558386 11.834736 -0.735718 0.644308 -17.067137 2.035404 6.162760 -1.438937 5.999282 -0.288412 -2.185264 46.971382 19.031029 -8.505134 2.180213 0.961096 16.470963 -3.739580 -3.125309 -4.189269 6.477545 -5.984248 1.155685 -1.885188 11.587315 -0.314606 -1.471647 -6.527255 2.227879 -9.998098 -8.395537 -1.969490 1.928470 15.810327 0.107482 1.761096 -7.597727 -1.456464 
0.018197 45.824013 0.181132 0.000020 -0.000021 178.994125 -0.009766 0.078122 0.048839 -0.156250 -0.029291 0.195232 -0.196335 -5.849579 -1.074697 0.068359 -0.146483 -1.581856 -5.448773 -0.425178 1.701281 -48.442081 21.421734 12.023371 -0.736265 0.362104 -17.295118 153.369263 85.577423 -173.270737 6.028754 -0.282830 -2.204536 46.932961 19.026096 -8.215322 2.094888 0.908205 16.677031 -3.739580 -3.125309 -4.189269 6.388906 -5.256042 1.052442 -1.830732 10.913274 -0.598688 -1.254331 -8.825785 1.954052 -10.039906 -8.471748 -1.958022 1.983331 16.229097 0.039549 1.495670 -7.937508 -0.606237 
0.051155 45.806686 0.248720 0.000020 -0.000021 178.906235 -0.009766 0.048827 0.039069 -0.156250 -0.048826 0.195179 -0.186512 -5.830050 -1.015071 0.048828 -0.136717 -1.513555 -5.390348 -0.427709 1.643115 -55.773354 19.949905 12.999549 -2.574767 1.040812 -18.363445 153.581757 85.596863 -173.406143 6.018760 -0.289142 -2.185157 53.989376 18.139091 -8.737466 3.728722 1.525634 17.445894 -3.739580 -3.125309 -4.189269 5.038548 -5.077201 0.874632 -1.836655 10.534381 -0.638345 -1.174947 -9.207097 2.409876 -8.657378 -8.560623 -1.808346 1.963519 16.571650 0.157161 1.512555 -7.463174 -0.930714 
0.078334 45.792400 0.304457 0.000020 -0.000021 178.876953 -0.019531 0.019528 0.029304 -0.146484 -0.068355 0.185372 -0.166873 -5.810527 -0.925097 0.029297 -0.117188 -1.367128 -5.341531 -0.433361 1.604348 -63.143322 18.432533 13.745290 -4.506042 1.840500 -19.338615 153.887909 85.598419 -173.680481 6.009058 -0.287749 -2.165767 61.237984 17.236494 -9.277509 5.427820 2.220768 18.201122 -3.739580 -3.125309 -4.189269 3.690972 -5.060865 0.757097 -1.805765 10.520817 -0.612013 -1.277282 -9.528342 2.615800 -7.215082 -8.579071 -1.168761 1.988591 16.746025 -0.125739 1.675772 -7.248289 -1.362178 
0.070896 45.796310 0.289203 0.000020 -0.000021 179.160141 -0.019531 0.000000 0.009766 -0.107422 -0.058594 0.126843 -0.117785 -5.771475 -0.656376 0.009766 -0.078124 -0.937487 -5.420683 -0.385265 1.691636 -69.265350 16.997711 13.203712 -6.520155 2.728759 -19.737247 154.805817 85.497627 -174.804672 5.911714 -0.279007 -2.117582 67.838760 16.398447 -9.827313 7.077065 2.938014 18.788719 -3.739580 -3.125309 -4.189269 2.638583 -5.714283 0.706452 -1.790720 11.397256 -0.526206 -1.308804 -9.147100 2.090120 -5.760122 -8.312214 -1.375741 1.879493 16.097204 0.228843 1.663808 -7.021857 -1.659826 
0.000000 45.833576 0.143818 0.000020 -0.000020 -180.000000 -0.000000 -0.000002 -0.000000 -0.000000 -0.000003 -0.000000 0.000000 -5.693362 -0.068359 -0.000000 0.000001 -0.000000 -5.687435 -0.268816 2.011532 -72.939857 15.729921 10.342516 -8.627808 3.598052 -19.121981 156.558609 85.214180 -177.176819 5.677635 -0.269442 -2.021281 72.939827 15.736414 -10.373324 8.572986 3.593885 19.072248 -3.739580 -3.125309 -4.189269 2.184478 -7.555518 0.802340 -2.305346 14.041778 -0.600935 -1.026953 -6.868780 0.367092 -4.381215 -7.522904 -0.504117 1.720419 13.918979 -0.216098 1.687197 -6.934803 -2.131565 
-0.146247 45.913654 -0.164038 0.000020 -0.000020 -178.417969 0.019531 0.009764 -0.029300 0.166016 0.107425 -0.234686 0.186432 -5.585913 0.926382 -0.009766 0.126952 1.601583 -6.205441 -0.047422 2.601863 -73.502625 14.583167 4.631958 -10.847208 4.309446 -17.211897 159.160767 84.671295 179.072647 5.268136 -0.249482 -1.847628 75.921867 15.327680 -10.900021 9.853738 4.106841 18.949062 -3.739580 -3.125309 -4.189269 2.464973 -10.827687 1.074884 -2.610618 18.818693 -0.787577 -0.763430 -2.720656 -2.584597 -3.149066 -6.077598 -0.202171 1.397805 9.908548 -0.383169 1.905920 -4.421525 -6.492571 
-0.311948 46.023201 -0.559498 0.000020 -0.000019 -176.093750 0.058594 0.009762 -0.078135 0.341799 0.214844 -0.528624 0.461053 -5.429517 2.309251 -0.009766 0.292969 3.818408 -6.802456 0.245563 3.268023 -71.965172 13.413553 -2.640436 -13.020286 4.706098 -14.600272 161.961136 83.935631 174.906189 4.702479 -0.229027 -1.596178 77.080818 15.128664 -11.385942 10.861799 4.434795 18.472696 -4.219277 -2.859248 -4.662605 3.341493 -14.821046 1.313625 -3.104670 25.015133 -0.883223 -1.061974 2.306000 -5.229859 -2.122656 -4.298449 0.106539 0.939505 4.972636 -0.864224 1.821334 -2.237126 -10.908231 
-0.424262 46.143188 -0.940903 0.000020 -0.000018 -173.066406 0.078125 -0.048829 -0.146417 0.478521 0.273427 -0.861658 0.794328 -5.233881 3.978840 -0.019532 0.507812 6.504079 -7.254233 0.626757 3.769085 -69.641212 12.208334 -9.733918 -14.933896 4.830802 -12.019904 164.569962 83.096382 171.095062 4.029414 -0.216202 -1.266392 76.909592 15.080415 -11.798577 11.564674 4.575470 17.749893 -4.219277 -2.859248 -4.662605 4.468716 -18.534105 1.837728 -3.407138 31.600470 -0.790517 -1.958147 7.776818 -6.089693 -1.414284 -2.581020 0.184781 0.659422 0.426729 -0.867770 1.772284 0.120986 -15.761901 
-0.410347 46.254566 -1.206583 0.000005 -0.000004 -169.404282 0.058594 -0.195316 -0.273238 0.507816 0.214837 -1.183543 1.176350 -4.998957 5.874204 -0.048832 0.751953 9.551435 -7.337014 1.111803 3.836985 -67.698997 11.142990 -14.956312 -16.293030 4.776779 -10.187520 166.796814 82.250832 168.230270 3.288235 -0.214765 -0.838465 75.919746 15.121060 -12.114943 11.938037 4.532073 16.863028 -4.219277 -2.859248 -4.662605 5.443165 -21.083651 2.453608 -3.878319 37.452930 -0.830717 -2.358158 12.652762 -2.891692 -1.050591 -1.341805 -0.144861 0.580874 -0.706733 -0.092449 1.649365 0.863972 -20.849283 
-0.217369 46.333038 -1.307462 0.000005 -0.000004 -165.156250 0.019531 -0.429691 -0.429542 0.390625 0.019534 -1.464909 1.607048 -4.734480 7.925879 -0.097671 1.005858 12.833744 -6.866310 1.675204 3.318032 -66.929558 10.412709 -17.027027 -16.918661 4.729042 -9.646491 168.817139 81.506561 166.401093 2.528053 -0.229060 -0.321959 74.587418 15.197592 -12.291701 11.911856 4.319390 15.893153 -4.219277 -2.859248 -4.662605 5.791634 -21.449301 2.809164 -4.418851 41.152630 -0.490903 -2.881307 15.348488 6.293067 -1.096823 -0.795735 0.327859 0.459163 -1.328187 -0.512994 2.716120 0.668767 -25.620058 
0.127485 46.333214 -1.404793 0.000005 -0.000003 -160.371094 0.029298 -0.517580 -0.556376 0.263672 -0.107418 -1.630365 2.066753 -4.440484 10.053011 -0.175825 1.279291 16.224598 -5.930554 2.284137 2.391814 -67.207321 9.994951 -16.219595 -16.915806 4.772140 -10.221695 170.535614 80.859543 165.598251 1.798303 -0.284083 0.283064 73.419754 15.222579 -12.323596 11.444448 3.967569 14.943038 -4.219277 -2.859248 -4.662605 4.939960 -19.478933 2.472441 -4.708416 40.478790 -0.341197 -2.174711 14.469721 16.586813 -1.540882 -0.351032 0.040502 0.409109 -1.800797 -0.245507 3.686609 0.062057 -30.210274 
0.577019 46.204449 -1.712418 0.000005 -0.000003 -155.097656 0.156252 -0.283203 -0.604670 0.244141 0.019538 -1.640707 2.545636 -4.117045 12.175503 -0.302845 1.552713 19.588297 -4.686772 2.870774 1.325478 -68.243202 9.818475 -13.164963 -16.482971 4.851561 -11.546244 172.015274 80.292015 165.578064 1.129272 -0.351895 0.986154 72.808609 15.184047 -12.189549 10.538091 3.502247 14.080689 -4.219277 -2.859248 -4.662605 2.423323 -14.789545 1.504830 -4.219276 32.543144 -0.674482 0.223540 8.889892 25.672501 -2.680718 -1.421526 -0.313029 0.608633 -0.154493 -0.260305 4.117018 0.732955 -33.417770 
1.050190 45.938511 -2.332183 0.000004 -0.000002 -149.384750 0.332031 0.058594 -0.576511 0.322268 0.185546 -1.553777 3.033895 -3.764264 14.223318 -0.478757 1.826109 22.827784 -3.322902 3.406867 0.371139 -69.821129 9.737651 -8.502288 -15.807455 4.943730 -13.301775 173.313721 79.802536 166.065887 0.511074 -0.434429 1.689432 72.642563 15.080364 -11.980901 9.324054 2.998563 13.396129 -4.219277 -2.859248 -4.662605 -0.463824 -8.304807 0.288396 -3.697674 18.111179 -0.720732 2.842366 -0.396949 30.308479 -5.384443 -9.599777 -0.772285 2.162469 12.789948 -0.572653 6.114909 -0.315002 -34.856613 
1.330557 45.696877 -2.917965 0.000004 -0.000002 -143.271484 0.478517 0.175773 -0.489668 0.449220 0.117186 -1.485217 3.512022 -3.392077 16.135794 -0.723133 2.079913 25.797722 -1.999804 3.883102 -0.176079 -71.725449 9.675637 -2.863026 -15.075856 5.003867 -15.150942 174.344452 79.388847 166.949829 -0.067963 -0.501160 2.285233 72.755714 14.981348 -11.823396 7.998621 2.521502 12.982850 -4.219277 -2.859248 -4.662605 -1.135713 -4.922363 -0.128362 -3.774961 11.353102 -0.019951 3.673987 -7.485611 30.445004 -8.473924 -16.965620 -2.972110 2.790806 25.023941 0.297394 12.078682 -1.087623 -33.405239 
1.246737 45.633965 -3.109087 0.000004 -0.000002 -136.796890 0.449233 0.458975 -0.462583 0.458984 0.009760 -1.640703 3.970296 -3.000609 17.815590 -1.026222 2.304318 28.380938 -0.924024 4.346493 -0.048958 -73.729637 9.556479 3.109602 -14.481106 5.043177 -16.718273 174.938934 79.044449 168.203934 -0.649756 -0.529063 2.685473 72.919594 14.913918 -11.829749 6.759992 2.091491 12.951801 -4.219277 -2.859248 -4.662605 -0.284202 -4.898254 -0.050430 -3.573357 10.322245 -0.202123 3.040107 -6.767840 26.068197 -10.536793 -22.274130 -3.056236 2.055782 33.759834 0.639720 19.899746 -1.593920 -30.052599 
